<svg width="26" height="32" viewBox="0 0 26 32" fill="none" xmlns="http://www.w3.org/2000/svg">
<path d="M25.3948 11.5811C25.2396 11.2542 24.9099 11.0457 24.5479 11.0457H15.1451L20.8364 1.41444C21.0076 1.12463 21.0103 0.765125 20.8434 0.472813C20.6766 0.1805 20.3658 -0.000124935 20.0291 6.48369e-08L11.9958 0.000875065C11.6624 0.00100006 11.3541 0.178 11.1861 0.465938L0.642388 18.5399C0.473201 18.8299 0.472013 19.1881 0.639201 19.4792C0.806388 19.7703 1.11645 19.9498 1.45214 19.9498H10.7951L8.07388 30.8351C7.96738 31.2609 8.17082 31.7038 8.56332 31.9006C8.69719 31.9676 8.84076 32 8.98294 32C9.25769 32 9.52694 31.8793 9.70982 31.655L25.2744 12.5758C25.5032 12.2953 25.5501 11.9081 25.3948 11.5811Z" fill="#FF754C"/>
</svg>
