<svg width="32" height="32" viewBox="0 0 32 32" fill="none" xmlns="http://www.w3.org/2000/svg">
<path d="M29.845 17.099L27.356 25.824C26.989 27.105 25.804 28 24.473 28H11C10.447 28 10 27.552 10 27V13C10 12.785 10.069 12.575 10.198 12.403L15.59 5.163C16.188 4.414 17.05 4 17.974 4C19.643 4 21 5.357 21 7.026V12H26.002C27.267 12 28.429 12.579 29.19 13.589C29.954 14.601 30.192 15.88 29.845 17.099Z" fill="#FF754C"/>
<path d="M7 12H3C2.447 12 2 12.448 2 13V27C2 27.552 2.447 28 3 28H7C7.553 28 8 27.552 8 27V13C8 12.448 7.553 12 7 12ZM5 25.5C4.172 25.5 3.5 24.828 3.5 24C3.5 23.172 4.172 22.5 5 22.5C5.828 22.5 6.5 23.172 6.5 24C6.5 24.828 5.828 25.5 5 25.5Z" fill="#FF754C"/>
</svg>
